<?xml version="1.0" encoding="utf-8"?>
<!-- Generator: Adobe Illustrator 28.2.0, SVG Export Plug-In . SVG Version: 6.00 Build 0)  -->
<svg version="1.1" id="Layer_1" xmlns="http://www.w3.org/2000/svg" xmlns:xlink="http://www.w3.org/1999/xlink" x="0px" y="0px"
	 viewBox="0 0 600 600" style="enable-background:new 0 0 600 600;" xml:space="preserve">
<g>
	<path d="M462.1,559.6c-29,0-63.4-9.1-101.6-27.3c-14.1-6.7-20-23.5-13.3-37.5c6.7-14,23.5-20,37.5-13.3
		c48.7,23.2,90,28.3,105.2,13.1c13.7-13.7,11-48.7-6.9-91.3c-22.1-52.6-63.7-111-117.2-164.6c-6.8-6.7-13.6-13.3-20.5-19.7
		c-11.4-10.6-12.1-28.4-1.5-39.8c10.6-11.4,28.4-12.1,39.8-1.5c7.4,6.8,14.7,13.9,22,21.2c58.6,58.6,104.5,123.5,129.4,182.6
		c28.2,67.1,26.3,121.4-5.2,153C513,551.2,490,559.6,462.1,559.6z M138.1,559.4c-28,0-51.1-8.4-67.8-25.1
		c-34.7-34.7-33.6-95.7,3.3-171.8c6.8-14,23.6-19.9,37.6-13c14,6.8,19.8,23.6,13.1,37.6c-24.1,49.7-29.7,91.8-14.1,107.4
		c13.7,13.7,48.7,11,91.3-6.9c52.6-22.1,111-63.7,164.5-117.2c6.9-6.9,13.6-13.9,20.1-20.9c10.6-11.5,28.4-12.1,39.8-1.5
		c11.4,10.6,12.1,28.4,1.5,39.8c-6.9,7.5-14.1,15-21.5,22.4c-58.6,58.6-123.4,104.6-182.6,129.4
		C191.7,552.8,162.9,559.4,138.1,559.4z M235.8,439.2c-6.8,0-13.7-2.5-19.1-7.5c-7.5-6.9-14.9-14.1-22.3-21.4
		C135.7,351.7,89.8,286.8,65,227.7c-28.2-67.1-26.3-121.4,5.3-153c34.3-34.3,94.5-33.6,169.3,2.1c14,6.7,20,23.5,13.3,37.5
		c-6.7,14-23.5,20-37.5,13.3c-48.7-23.2-90-28.3-105.2-13.1c-13.7,13.7-11.1,48.7,6.8,91.3c22.1,52.6,63.7,111,117.2,164.5
		c6.8,6.8,13.8,13.5,20.7,19.9c11.4,10.6,12.1,28.4,1.6,39.8C250.9,436.1,243.4,439.2,235.8,439.2z M193.1,268.9
		c-6.8,0-13.6-2.4-19.1-7.4c-11.4-10.5-12.2-28.3-1.7-39.8c7-7.7,14.4-15.3,21.9-22.9c58.6-58.6,123.4-104.5,182.6-129.4
		c67.1-28.1,121.4-26.3,152.9,5.3c34.7,34.7,33.6,95.7-3.2,171.7c-6.8,14-23.6,19.9-37.6,13.1c-14-6.8-19.9-23.6-13.1-37.6
		c24.1-49.7,29.6-91.8,14.1-107.3c-13.7-13.7-48.7-11.1-91.3,6.9c-52.6,22.1-111,63.7-164.5,117.2c-7,7-13.8,14.1-20.3,21.2
		C208.2,265.9,200.7,268.9,193.1,268.9z"/>
	<path d="M300,255.5c27.1,0,49.1,22,49.1,49.1c0,27.1-22,49.1-49.1,49.1c-27.1,0-49.1-22-49.1-49.1C251,277.4,272.9,255.5,300,255.5
		"/>
</g>
</svg>
