<?xml version="1.0" encoding="UTF-8"?>
<svg id="Layer_2" data-name="Layer 2" xmlns="http://www.w3.org/2000/svg" viewBox="0 0 447.81 447.87">
  <defs>
    <style>
      .cls-1 {
        fill: none;
        stroke: #000;
        stroke-linecap: round;
        stroke-miterlimit: 10;
        stroke-width: 32px;
      }
    </style>
  </defs>
  <g id="Layer_9" data-name="Layer 9">
    <g>
      <circle class="cls-1" cx="223.93" cy="223.94" r="52"/>
      <path class="cls-1" d="M339.42,262.62c-11.38,13.44-23.69,26.82-36.84,39.97-106.27,106.27-227.64,157.21-271.08,113.77-27.29-27.29-17.33-85.34,20.2-151.07"/>
      <path class="cls-1" d="M184.58,338.86c-13.21-11.22-26.37-23.34-39.3-36.27C39.01,196.32-11.93,74.95,31.51,31.51,58.64,4.39,116.15,14.06,181.41,51.04"/>
      <path class="cls-1" d="M108.39,185.25c11.38-13.44,23.69-26.82,36.84-39.97C251.5,39.01,372.87-11.93,416.31,31.51c27.29,27.29,17.33,85.34-20.2,151.07"/>
      <path class="cls-1" d="M263.23,109.01c13.21,11.22,26.37,23.34,39.3,36.27,106.27,106.27,157.21,227.64,113.77,271.08-27.13,27.13-84.64,17.45-149.9-19.53"/>
    </g>
  </g>
</svg>